<svg xmlns="http://www.w3.org/2000/svg" width="32" height="32"><path d="M14.683 14.698a.5.5 0 00.33-.124L26.33 4.652l-.66-.752-11.317 9.921a.5.5 0 00.33.877zM10.188 32C16.33 32 20 27.17 20 22.5c0-1.346-.322-2.829-.798-3.792l4.522-2.261A.5.5 0 0024 16v-4h3l.113-.006c.666-.045.865-.257.887-.994V7h3c.129 0 .218.014.278.023.121.019.347.054.543-.122.202-.18.193-.408.185-.609C32.004 6.22 32 6.125 32 6V1.469A1.47 1.47 0 0030.531 0h-3.875a1.48 1.48 0 00-.969.364L12.5 11.924c-.649-.13-1.63-.299-2.313-.299C4.57 11.625 0 16.195 0 21.812S4.57 32 10.188 32zm0-19.375c.501 0 1.359.12 2.354.328a.495.495 0 00.432-.113L26.345 1.118A.474.474 0 0126.656 1h3.875c.259 0 .469.21.469.469V6h-3.5a.5.5 0 00-.5.5V11h-3.5a.5.5 0 00-.5.5v4.191l-4.724 2.362a.5.5 0 00-.182.74c.44.607.906 2.114.906 3.707 0 4.178-3.296 8.5-8.812 8.5C5.122 31 1 26.878 1 21.812s4.122-9.187 9.188-9.187zM8.5 27c1.93 0 3.5-1.57 3.5-3.5S10.43 20 8.5 20 5 21.57 5 23.5 6.57 27 8.5 27zm0-6c1.378 0 2.5 1.122 2.5 2.5S9.878 26 8.5 26 6 24.878 6 23.5 7.122 21 8.5 21z"/></svg>